<?xml version="1.0" encoding="utf-8"?>
<!-- Generator: Adobe Illustrator 21.0.0, SVG Export Plug-In . SVG Version: 6.00 Build 0)  -->
<svg version="1.1"
	 id="Calque_1" xmlns:cc="http://creativecommons.org/ns#" xmlns:dc="http://purl.org/dc/elements/1.1/" xmlns:inkscape="http://www.inkscape.org/namespaces/inkscape" xmlns:rdf="http://www.w3.org/1999/02/22-rdf-syntax-ns#" xmlns:sodipodi="http://sodipodi.sourceforge.net/DTD/sodipodi-0.dtd" xmlns:svg="http://www.w3.org/2000/svg"
	 xmlns="http://www.w3.org/2000/svg" xmlns:xlink="http://www.w3.org/1999/xlink" x="0px" y="0px" viewBox="0 0 40 40"
	 style="enable-background:new 0 0 40 40;" xml:space="preserve">
<g transform="translate(0,-952.36218)">
	<path fill="#f4836c" d="M3,952.4c-0.8,0-1.5,0.3-2.1,0.9c-1.2,1.2-1.2,3.1,0,4.2l14.9,14.9L0.9,987.2c-1.2,1.2-1.2,3.1,0,4.3
		c1.2,1.2,3.1,1.2,4.3,0L20,976.6l14.9,14.9c1.2,1.2,3.1,1.2,4.3,0c1.2-1.2,1.2-3.1,0-4.3l-14.9-14.9l14.9-14.9
		c1.2-1.2,1.2-3.1,0-4.2c-1.2-1.2-3.1-1.2-4.3,0L20,968.1L5.1,953.2C4.5,952.7,3.8,952.4,3,952.4z"/>
</g>
</svg>
