<?xml version="1.0" encoding="utf-8"?>
<!-- Generator: Adobe Illustrator 21.0.0, SVG Export Plug-In . SVG Version: 6.00 Build 0)  -->
<svg version="1.1" id="Calque_1" xmlns="http://www.w3.org/2000/svg" xmlns:xlink="http://www.w3.org/1999/xlink" x="0px" y="0px"
	 viewBox="0 0 62.5 60.5" style="enable-background:new 0 0 62.5 60.5;" xml:space="preserve">
<path fill="#75c593" d="M5.8,60.4h8.4v-37H0C1.9,35.8,3.9,48.1,5.8,60.4z M62.4,29.5c0.4-4.4-3.1-4.7-4-4.7C57,24.7,46,24.8,41.1,24.6
	c-1,0-1.7-0.9-1.5-2.1c0.3-2.5,1.4-10.3,1.4-11.8c0-1.7-0.3-3.3-0.6-5c-0.3-1.6-0.9-3.1-2-4.3c-1.2-1.3-2.7-1.8-4.4-1.2
	c-1.7,0.6-2.8,1.7-2.9,3.5c-0.1,2.5-0.2,5.1-0.3,7.6c0,0.3-0.1,0.7-0.3,1c-2.5,4.5-5.1,9-7.6,13.5c-0.6,1.1-1.2,1.3-2.5,1.6
	c-1.2,0.1-3.4,0.3-4.7,0.4v26.8c0.8,0,1.5,0,2.3,0c0.6,0,1.1,0.1,1.6,0.4c2.9,1.7,5.8,3.4,8.8,5.1c0.3,0.1,0.6,0.3,0.9,0.3
	c7.2,0,13.3,0,20.5,0c1,0,4.5-0.4,5.3-4.1c0.9-3.7-2.7-4.8-2.7-4.8s4.4,0.5,5.2-3.5c0.7-3.8-2.7-5-2.8-5c1.4-0.2,4.5-0.9,5.1-3.7
	c0.7-2.9-1.4-4.7-2.5-5.5C58.9,33.8,62.2,32.7,62.4,29.5z"/>
</svg>
