<?xml version="1.0" encoding="utf-8"?>
<!-- Generator: Adobe Illustrator 18.0.0, SVG Export Plug-In . SVG Version: 6.00 Build 0)  -->
<!DOCTYPE svg PUBLIC "-//W3C//DTD SVG 1.1//EN" "http://www.w3.org/Graphics/SVG/1.1/DTD/svg11.dtd">
<svg version="1.1" id="Calque_1" xmlns="http://www.w3.org/2000/svg" xmlns:xlink="http://www.w3.org/1999/xlink" x="0px" y="0px"
	 viewBox="0 0 442.7 97.8" style="enable-background:new 0 0 442.7 97.8;" xml:space="preserve">
<style type="text/css">
	.st0{clip-path:url(#SVGID_2_);fill:#FFFFFF;}
	.st1{clip-path:url(#SVGID_2_);}
	.st2{fill:#FFFFFF;}
</style>
<g>
	<defs>
		<rect id="SVGID_1_" x="0" y="0" width="442.7" height="96.8"/>
	</defs>
	<clipPath id="SVGID_2_">
		<use xlink:href="#SVGID_1_"  style="overflow:visible;"/>
	</clipPath>
	<path class="st0" d="M53.4,74.2c1.7,6.7-2.4,13.4-9.1,15.1c-6.7,1.7-13.4-2.4-15.1-9.1c-1.7-6.7,2.4-13.4,9.1-15.1
		C45,63.5,51.7,67.5,53.4,74.2"/>
	<path class="st0" d="M24.5,81.3c1.7,6.7-2.4,13.4-9.1,15.1C8.8,98.1,2,94,0.4,87.3c-1.7-6.7,2.4-13.4,9.1-15.1
		C16.1,70.6,22.9,74.7,24.5,81.3"/>
	<path class="st0" d="M82.7,66.9c1.7,6.7-2.4,13.4-9.1,15.1c-6.7,1.7-13.4-2.4-15.1-9.1s2.4-13.4,9.1-15.1
		C74.3,56.2,81,60.3,82.7,66.9"/>
	<path class="st0" d="M58.7,41.8c1.7,6.7-2.4,13.4-9.1,15.1c-6.7,1.7-13.4-2.4-15.1-9.1c-1.7-6.7,2.4-13.4,9.1-15.1
		C50.3,31.1,57,35.1,58.7,41.8"/>
	<path class="st0" d="M29.5,49c1.7,6.7-2.4,13.4-9.1,15.1C13.7,65.7,7,61.7,5.3,55c-1.7-6.7,2.4-13.4,9.1-15.1
		C21.1,38.3,27.8,42.4,29.5,49"/>
	<path class="st0" d="M33.4,16.7c1.7,6.7-2.4,13.4-9.1,15.1c-6.7,1.7-13.4-2.4-15.1-9.1C7.6,16,11.7,9.3,18.3,7.6
		S31.8,10.1,33.4,16.7"/>
	<path class="st0" d="M62.7,9.4c1.7,6.7-2.4,13.4-9.1,15.1c-6.7,1.7-13.4-2.4-15.1-9.1C36.9,8.8,41,2,47.7,0.4
		C54.3-1.3,61.1,2.8,62.7,9.4"/>
	<path class="st0" d="M87.8,34.2c1.7,6.7-2.4,13.4-9.1,15.1c-6.7,1.7-13.4-2.4-15.1-9.1C62,33.5,66,26.8,72.7,25.1
		C79.4,23.5,86.1,27.5,87.8,34.2"/>
	<g class="st1">
		<path class="st2" d="M131,69.4l-10.5-30.2c-0.2-0.7-0.6-1.9-0.6-3c0-2.8,2.2-5.5,5.8-5.5c3,0,5,1.9,5.9,4.7l6.6,21.8l6.7-21.7
			c0.9-2.9,3.1-4.9,6.2-4.9h0.7c3.1,0,5.4,2,6.2,4.9l6.8,21.8l6.7-21.9c0.8-2.6,2.6-4.6,5.8-4.6c3.4,0,5.7,2.6,5.7,5.6
			c0,0.8-0.2,1.9-0.4,2.5L172,69.4c-1.3,3.8-3.8,5.4-6.7,5.4h-0.4c-3,0-5.4-1.7-6.6-5.2L151.5,48l-6.9,21.6
			c-1.1,3.5-3.6,5.2-6.6,5.2h-0.4C134.7,74.8,132.3,73.1,131,69.4z"/>
		<path class="st2" d="M190.8,20.9c0-3.5,3-5.7,6.8-5.7s6.8,2.2,6.8,5.7V21c0,3.5-3,5.8-6.8,5.8s-6.8-2.2-6.8-5.8V20.9z M191.5,36.7
			c0-3.4,2.7-6.1,6.1-6.1s6.1,2.7,6.1,6.1v31.7c0,3.4-2.7,6.1-6.1,6.1s-6.1-2.7-6.1-6.1V36.7z"/>
		<path class="st2" d="M214,69.9c-1.3-0.8-2.3-2.2-2.3-4.2c0-2.7,2.1-4.8,4.8-4.8c0.9,0,1.8,0.2,2.4,0.6c4.1,2.6,8.2,3.8,11.6,3.8
			c3.5,0,5.1-1.3,5.1-3.2v-0.2c0-2.6-4.2-3.5-8.9-5c-6-1.8-12.8-4.6-12.8-12.9v-0.2c0-8.7,7-13.6,15.7-13.6c4.5,0,9.1,1.2,13.3,3.3
			c1.8,0.9,2.9,2.5,2.9,4.6c0,2.7-2.2,4.8-4.9,4.8c-0.9,0-1.4-0.2-2.2-0.6c-3.4-1.7-6.7-2.7-9.3-2.7c-3,0-4.5,1.3-4.5,3V43
			c0,2.4,4.1,3.5,8.7,5.1c6,2,13,4.9,13,12.7V61c0,9.5-7.1,13.8-16.4,13.8C224.9,74.8,219.2,73.3,214,69.9z"/>
		<path class="st2" d="M275.6,75c-12.9,0-22.4-9-22.4-22.2v-0.2c0-12.2,8.7-22.3,21.2-22.3c14.3,0,20.6,11.8,20.6,20.6
			c0,3.5-2.5,5.8-5.7,5.8h-24.1c1.2,5.5,5,8.4,10.5,8.4c3.4,0,6.2-1,8.6-2.9c0.9-0.6,1.7-1,3-1c2.7,0,4.7,2.1,4.7,4.8
			c0,1.6-0.7,2.8-1.6,3.6C286.7,73,281.9,75,275.6,75z M283.5,49.2c-0.7-5.4-3.9-9.1-9-9.1c-5,0-8.3,3.6-9.3,9.1H283.5z"/>
		<path class="st2" d="M304.3,36.7c0-3.4,2.7-6.1,6.1-6.1c3.4,0,6.1,2.7,6.1,6.1v0.6c3-4,7-7,13.4-7c10,0,19.5,7.8,19.5,22.2v0.2
			c0,14.3-9.4,22.2-19.5,22.2c-6.5,0-10.5-3-13.4-6.4v12.8c0,3.4-2.7,6.1-6.1,6.1c-3.4,0-6.1-2.7-6.1-6.1V36.7z M337.2,52.6v-0.2
			c0-7.1-4.8-11.8-10.5-11.8c-5.7,0-10.4,4.7-10.4,11.8v0.2c0,7.1,4.7,11.8,10.4,11.8C332.4,64.5,337.2,59.8,337.2,52.6z"/>
		<path class="st2" d="M358.2,20.9c0-3.5,3-5.7,6.8-5.7s6.8,2.2,6.8,5.7V21c0,3.5-3,5.8-6.8,5.8s-6.8-2.2-6.8-5.8V20.9z M358.9,36.7
			c0-3.4,2.7-6.1,6.1-6.1s6.1,2.7,6.1,6.1v31.7c0,3.4-2.7,6.1-6.1,6.1s-6.1-2.7-6.1-6.1V36.7z"/>
		<path class="st2" d="M382.5,21.2c0-3.4,2.7-6.1,6.1-6.1c3.4,0,6.1,2.7,6.1,6.1v26.6l15.2-14.4c1.8-1.7,3.2-2.7,5.4-2.7
			c3.3,0,5.4,2.6,5.4,5.4c0,2.1-1.1,3.7-2.8,5.3l-9.6,8.2L419.6,65c1,1.4,1.5,2.6,1.5,3.9c0,3.3-2.6,5.5-5.7,5.5
			c-2.4,0-3.8-0.8-5.3-2.8L399.5,57l-4.9,4.4v7c0,3.4-2.7,6.1-6.1,6.1c-3.4,0-6.1-2.7-6.1-6.1V21.2z"/>
	</g>
</g>
</svg>
